<?xml version="1.0" encoding="UTF-8" standalone="no"?>
<!-- Created with Inkscape (http://www.inkscape.org/) -->

<svg
   xmlns:dc="http://purl.org/dc/elements/1.1/"
   xmlns:cc="http://creativecommons.org/ns#"
   xmlns:rdf="http://www.w3.org/1999/02/22-rdf-syntax-ns#"
   xmlns:svg="http://www.w3.org/2000/svg"
   xmlns="http://www.w3.org/2000/svg"
   xmlns:sodipodi="http://sodipodi.sourceforge.net/DTD/sodipodi-0.dtd"
   xmlns:inkscape="http://www.inkscape.org/namespaces/inkscape"
   width="575"
   height="575"
   id="svg2"
   version="1.1"
   inkscape:version="0.48.4 r9943 custom"
   sodipodi:docname="bcc_logo_2.svg"
   inkscape:export-filename="/Users/pvrdwb/griffith/bccvl_layout/images/bcc_logo_small.png"
   inkscape:export-xdpi="15.652174"
   inkscape:export-ydpi="15.652174">
  <defs
     id="defs4" />
  <sodipodi:namedview
     id="base"
     pagecolor="#ffffff"
     bordercolor="#666666"
     borderopacity="1.0"
     inkscape:pageopacity="0.0"
     inkscape:pageshadow="2"
     inkscape:zoom="1"
     inkscape:cx="288.68643"
     inkscape:cy="204.5"
     inkscape:document-units="px"
     inkscape:current-layer="layer1"
     showgrid="false"
     fit-margin-left="50"
     fit-margin-right="50"
     fit-margin-bottom="50"
     fit-margin-top="50"
     inkscape:window-width="1492"
     inkscape:window-height="1065"
     inkscape:window-x="206"
     inkscape:window-y="66"
     inkscape:window-maximized="0" />
  <metadata
     id="metadata7">
    <rdf:RDF>
      <cc:Work
         rdf:about="">
        <dc:format>image/svg+xml</dc:format>
        <dc:type
           rdf:resource="http://purl.org/dc/dcmitype/StillImage" />
        <dc:title></dc:title>
      </cc:Work>
    </rdf:RDF>
  </metadata>
  <g
     inkscape:label="Layer 1"
     inkscape:groupmode="layer"
     id="layer1"
     transform="translate(-93.999999,-161.86218)">
    <path
       transform="matrix(0.98814229,0,0,0.98814229,67.189723,-80.819817)"
       style="fill:none;stroke:#000000;stroke-width:10.11999989;stroke-miterlimit:4;stroke-opacity:1"
       d="m 522,436.86218 c 0,69.86402 -56.63598,126.5 -126.5,126.5 -69.86402,0 -126.5,-56.63598 -126.5,-126.5 0,-69.86402 56.63598,-126.5 126.5,-126.5 69.86402,0 126.5,56.63598 126.5,126.5 z"
       id="path2989-0" />
    <path
       transform="matrix(0.98814229,0,0,0.98814229,70.18973,106.18018)"
       style="fill:none;stroke:#000000;stroke-width:10.11999989;stroke-miterlimit:4;stroke-opacity:1"
       d="m 522,436.86218 c 0,69.86402 -56.63598,126.5 -126.5,126.5 -69.86402,0 -126.5,-56.63598 -126.5,-126.5 0,-69.86402 56.63598,-126.5 126.5,-126.5 69.86402,0 126.5,56.63598 126.5,126.5 z"
       id="path2989-0-0" />
    <path
       transform="matrix(0.67801687,-0.73504634,0.73504633,0.67801688,0,0)"
       style="fill:#ffffff;fill-opacity:1;stroke:none"
       d="m 46.656303,572.91284 151.184177,0 0,151.18414 -151.184177,0 z"
       id="rect3876" />
    <path
       transform="matrix(0.67801687,-0.73504634,0.73504633,0.67801688,0,0)"
       style="fill:#ffffff;fill-opacity:1;stroke:none"
       d="m -82.891945,703.88177 151.184174,0 0,151.18415 -151.184174,0 z"
       id="rect3876-8" />
    <path
       transform="matrix(-0.98814229,0,0,0.98814229,682.2184,-80.31982)"
       style="fill:none;stroke:#000000;stroke-width:10.11999989;stroke-miterlimit:4;stroke-opacity:1"
       d="m 522,436.86218 c 0,69.86402 -56.63598,126.5 -126.5,126.5 -69.86402,0 -126.5,-56.63598 -126.5,-126.5 0,-69.86402 56.63598,-126.5 126.5,-126.5 69.86402,0 126.5,56.63598 126.5,126.5 z"
       id="path2989-0-2" />
    <path
       transform="matrix(-0.98814229,0,0,0.98814229,679.2184,106.68018)"
       style="fill:none;stroke:#000000;stroke-width:10.11999989;stroke-miterlimit:4;stroke-opacity:1"
       d="m 522,436.86218 c 0,69.86402 -56.63598,126.5 -126.5,126.5 -69.86402,0 -126.5,-56.63598 -126.5,-126.5 0,-69.86402 56.63598,-126.5 126.5,-126.5 69.86402,0 126.5,56.63598 126.5,126.5 z"
       id="path2989-0-0-0" />
    <path
       transform="matrix(-0.67801687,-0.73504634,-0.73504633,0.67801688,0,0)"
       style="fill:#ffffff;fill-opacity:1;stroke:none"
       d="m -461.82254,22.402161 151.18417,0 0,151.184139 -151.18417,0 z"
       id="rect3876-7" />
    <path
       transform="matrix(-0.67801687,-0.73504634,-0.73504633,0.67801688,0,0)"
       style="fill:#ffffff;fill-opacity:1;stroke:none"
       d="m -591.37085,153.37102 151.18417,0 0,151.18414 -151.18417,0 z"
       id="rect3876-8-2" />
    <path
       style="fill:#000000;fill-opacity:1;stroke:none"
       d="m 282,255.86218 10,0 0,379 -10,0 z"
       id="rect3925" />
  </g>
</svg>
