<?xml version="1.0" encoding="UTF-8" standalone="no"?>
<!-- Created with Inkscape (http://www.inkscape.org/) -->

<svg
   xmlns:dc="http://purl.org/dc/elements/1.1/"
   xmlns:cc="http://creativecommons.org/ns#"
   xmlns:rdf="http://www.w3.org/1999/02/22-rdf-syntax-ns#"
   xmlns:svg="http://www.w3.org/2000/svg"
   xmlns="http://www.w3.org/2000/svg"
   xmlns:sodipodi="http://sodipodi.sourceforge.net/DTD/sodipodi-0.dtd"
   xmlns:inkscape="http://www.inkscape.org/namespaces/inkscape"
   width="575"
   height="575"
   id="svg2"
   version="1.1"
   inkscape:version="0.48.4 r9943 custom"
   sodipodi:docname="bcc_logo_2_composed.svg"
   inkscape:export-filename="/Users/pvrdwb/griffith/bccvl_layout/images/bcc_logo_small.png"
   inkscape:export-xdpi="15.652174"
   inkscape:export-ydpi="15.652174">
  <defs
     id="defs4" />
  <sodipodi:namedview
     id="base"
     pagecolor="#ffffff"
     bordercolor="#666666"
     borderopacity="1.0"
     inkscape:pageopacity="0.0"
     inkscape:pageshadow="2"
     inkscape:zoom="1"
     inkscape:cx="288.68643"
     inkscape:cy="307.02435"
     inkscape:document-units="px"
     inkscape:current-layer="layer1"
     showgrid="false"
     fit-margin-left="50"
     fit-margin-right="50"
     fit-margin-bottom="50"
     fit-margin-top="50"
     inkscape:window-width="1492"
     inkscape:window-height="1065"
     inkscape:window-x="206"
     inkscape:window-y="66"
     inkscape:window-maximized="0" />
  <metadata
     id="metadata7">
    <rdf:RDF>
      <cc:Work
         rdf:about="">
        <dc:format>image/svg+xml</dc:format>
        <dc:type
           rdf:resource="http://purl.org/dc/dcmitype/StillImage" />
        <dc:title></dc:title>
      </cc:Work>
    </rdf:RDF>
  </metadata>
  <g
     inkscape:label="Layer 1"
     inkscape:groupmode="layer"
     id="layer1"
     transform="translate(-93.999999,-161.86218)">
    <path
       style="font-size:medium;font-style:normal;font-variant:normal;font-weight:normal;font-stretch:normal;text-indent:0;text-align:start;text-decoration:none;line-height:normal;letter-spacing:normal;word-spacing:normal;text-transform:none;direction:ltr;block-progression:tb;writing-mode:lr-tb;text-anchor:start;baseline-shift:baseline;color:#000000;fill:#000000;fill-opacity:1;stroke:none;stroke-width:10;marker:none;visibility:visible;display:inline;overflow:visible;enable-background:accumulate;font-family:Sans;-inkscape-font-specification:Sans"
       d="M 367 63 C 295.26221 63 237 121.26221 237 193 C 237 264.73779 295.26221 323 367 323 C 403.84671 323 437.14471 307.64101 460.8125 282.96875 L 453.5 276.21875 C 431.67544 298.90841 401.01034 313 367 313 C 300.66661 313 247 259.33339 247 193 C 247 126.66661 300.66661 73 367 73 C 398.65183 73 427.4143 85.234974 448.84375 105.21875 L 455.5625 97.90625 C 432.33895 76.267119 401.20753 63 367 63 z "
       transform="translate(93.999999,161.86218)"
       id="path2989-0" />
    <path
       style="font-size:medium;font-style:normal;font-variant:normal;font-weight:normal;font-stretch:normal;text-indent:0;text-align:start;text-decoration:none;line-height:normal;letter-spacing:normal;word-spacing:normal;text-transform:none;direction:ltr;block-progression:tb;writing-mode:lr-tb;text-anchor:start;baseline-shift:baseline;color:#000000;fill:#000000;fill-opacity:1;stroke:none;stroke-width:10;marker:none;visibility:visible;display:inline;overflow:visible;enable-background:accumulate;font-family:Sans;-inkscape-font-specification:Sans"
       d="M 370 245 C 298.2622 245 240 303.26221 240 375 C 240 446.7378 298.2622 505 370 505 C 408.6912 505 443.4564 488.05672 467.28125 461.1875 L 459.96875 454.4375 C 437.99043 479.32044 405.85364 495 370 495 C 303.6666 495 250 441.3334 250 375 C 250 308.66661 303.6666 255 370 255 C 402.60064 255 432.13544 267.97308 453.75 289.03125 L 460.5 281.75 C 437.08585 259.02461 405.16639 245 370 245 z "
       transform="translate(93.999999,161.86218)"
       id="path2989-0-0" />
    <path
       style="font-size:medium;font-style:normal;font-variant:normal;font-weight:normal;font-stretch:normal;text-indent:0;text-align:start;text-decoration:none;line-height:normal;letter-spacing:normal;word-spacing:normal;text-transform:none;direction:ltr;block-progression:tb;writing-mode:lr-tb;text-anchor:start;baseline-shift:baseline;color:#000000;fill:#000000;fill-opacity:1;stroke:none;stroke-width:10;marker:none;visibility:visible;display:inline;overflow:visible;enable-background:accumulate;font-family:Sans;-inkscape-font-specification:Sans"
       d="M 197.40625 63.5 C 162.69002 63.5 131.14126 77.161865 107.8125 99.375 L 114.53125 106.6875 C 136.06457 86.128324 165.24413 73.5 197.40625 73.5 C 263.73965 73.5 317.40625 127.16661 317.40625 193.5 C 317.40625 259.8334 263.73965 313.5 197.40625 313.5 C 163.41198 313.5 132.76011 299.42083 110.9375 276.75 L 103.625 283.5 C 127.29088 308.15359 160.57544 323.5 197.40625 323.5 C 269.14405 323.5 327.40625 265.2378 327.40625 193.5 C 327.40625 121.76221 269.14405 63.5 197.40625 63.5 z "
       transform="translate(93.999999,161.86218)"
       id="path2989-0-2" />
    <path
       style="font-size:medium;font-style:normal;font-variant:normal;font-weight:normal;font-stretch:normal;text-indent:0;text-align:start;text-decoration:none;line-height:normal;letter-spacing:normal;word-spacing:normal;text-transform:none;direction:ltr;block-progression:tb;writing-mode:lr-tb;text-anchor:start;baseline-shift:baseline;color:#000000;fill:#000000;fill-opacity:1;stroke:none;stroke-width:10;marker:none;visibility:visible;display:inline;overflow:visible;enable-background:accumulate;font-family:Sans;-inkscape-font-specification:Sans"
       d="M 194.40625 245.5 C 159.23986 245.5 127.3204 259.52461 103.90625 282.25 L 110.65625 289.53125 C 132.27081 268.47308 161.80561 255.5 194.40625 255.5 C 260.73965 255.5 314.40625 309.16661 314.40625 375.5 C 314.40625 441.8334 260.73965 495.5 194.40625 495.5 C 158.55261 495.5 126.41582 479.82044 104.4375 454.9375 L 97.125 461.6875 C 120.94985 488.55672 155.71505 505.5 194.40625 505.5 C 266.14405 505.5 324.40625 447.2378 324.40625 375.5 C 324.40625 303.76221 266.14405 245.5 194.40625 245.5 z "
       transform="translate(93.999999,161.86218)"
       id="path2989-0-0-0" />
    <path
       style="fill:#000000;fill-opacity:1;stroke:none"
       d="m 284,287.86218 10,0 0,336 -10,0 z"
       id="rect3925"
       inkscape:connector-curvature="0" />
  </g>
</svg>
